<svg width="357" height="74" viewBox="0 0 357 74" fill="none" xmlns="http://www.w3.org/2000/svg">
<path d="M27.5662 2.85645L35.0417 8.69606C34.4987 9.32094 33.3309 9.94581 31.7688 10.2508V39.7687C31.6944 40.2374 28.2654 41.7178 25.848 41.7178H24.7545V36.9642H9.18625V58.7679C13.3889 57.1314 18.3725 54.9517 23.6686 52.7721C22.0321 49.1121 20.0089 45.6084 17.9857 42.7295L18.9229 42.3426C40.6501 55.0336 33.9482 72.0912 26.9414 65.3961C26.867 62.0485 25.9298 58.3067 24.5314 54.7286C20.0907 58.0761 13.9393 62.8296 6.77626 67.5013C6.15144 68.7511 5.37786 69.6065 4.59685 69.9934L0 61.5799C1.94882 60.3301 2.26123 59.7871 2.26123 57.9199V3.48132L10.2053 6.75448H23.9884L27.5736 2.86389L27.5662 2.85645ZM24.762 20.6133V9.0085H9.18625V20.6133H24.762ZM24.762 34.7846V22.8673H9.18625V34.7846H24.762ZM68.4469 8.77044C67.9039 9.39532 66.8105 10.0202 65.2559 10.3252V50.2726C65.2559 55.4873 64.2443 58.6043 55.8316 59.4598C55.6754 57.0421 55.2886 55.1749 54.3514 54.1632C53.3398 52.9134 51.7034 52.1398 48.5123 51.5149V50.4214C48.5123 50.4214 55.1324 50.89 56.6126 50.89C57.9366 50.89 58.249 50.4214 58.249 49.3353V9.14984H45.2469V70.5141C45.2469 71.4514 42.6807 73.3186 39.4823 73.3186H38.2327V3.54083L45.5519 6.88838H57.468L60.8152 2.91596L68.4469 8.75557V8.77044Z" fill="white"/>
<path d="M120.084 2.07545C119.854 3.16898 119.303 3.94264 117.206 4.25508V70.2985C117.206 71.1539 114.171 72.9467 111.597 72.9467H110.199V40.5499H104.903C104.516 53.0102 103.036 64.4589 93.0684 72.5599L92.0568 71.392C97.8958 62.6661 98.052 51.8423 98.1339 40.5499H92.6072L91.9824 38.2885H110.206V27.3829H102.887L100.782 30.1874L93.537 26.3712C94.08 25.7463 94.9354 25.0471 95.7983 24.504V4.18068L105.453 5.19239C105.297 6.04787 104.598 6.67275 102.336 7.05958V25.1289H110.199V1.06374L120.092 2.07545H120.084ZM136.047 22.2426C133.48 24.1097 129.352 26.8399 123.974 30.1056C123.662 31.1991 123.119 31.8165 122.338 32.0546L118.597 25.2033C121.869 24.5784 129.032 22.9418 135.809 21.2309L136.039 22.2426H136.047ZM159.098 34.4723C159.098 34.4723 163.457 38.5191 165.874 41.2492C165.718 42.1047 164.937 42.4989 163.851 42.4989H153.259V63.7596C153.259 68.8999 152.091 72.0913 142.592 72.9467C142.28 70.6853 141.737 69.0561 140.487 67.9626C139.089 66.7947 136.902 65.8574 132.469 65.3143V64.2208C132.469 64.2208 142.354 64.9201 144.229 64.9201C145.709 64.9201 146.178 64.4514 146.178 63.2835V42.4915H119.467L118.842 40.2301H146.178V28.9377L155.989 29.875C155.832 31.0429 155.051 31.6678 153.266 31.8984V40.2301H155.371L159.113 34.4648L159.098 34.4723ZM119.385 20.844C124.993 16.1723 130.907 7.60263 133.711 0.595093L143.991 3.3996C143.678 4.18069 143.054 4.56751 141.03 4.33691C140.019 5.73544 138.769 7.1414 137.527 8.53993H153.571L157.387 4.87995L164.632 10.9576C164.007 11.5825 162.839 11.8949 160.972 11.9693C152.403 24.6602 139.788 33.6986 119.854 38.7571L119.154 37.5892C128.266 33.9292 135.898 29.4137 142.206 23.7304C141.425 23.961 140.413 23.8866 139.327 23.3435C137.929 20.3828 134.418 16.9609 131.152 14.6176C127.649 17.4965 123.907 19.9142 120.092 21.7069L119.392 20.8515L119.385 20.844ZM125.306 44.9836C143.998 49.9677 138.077 63.3653 131.613 58.3812C130.989 54.022 127.641 48.7254 124.525 45.5341L125.306 44.991V44.9836ZM135.429 10.7939C134.492 11.6494 133.637 12.5049 132.707 13.286C142.518 14.6845 145.01 19.3637 143.998 22.012C147.502 18.5826 150.38 14.9226 152.872 10.7939H135.429Z" fill="white"/>
<path d="M209.492 47.1706C227.016 50.4438 221.482 62.0486 215.413 57.7637C214.632 54.7286 211.984 50.9868 209.492 48.5766V70.8489C209.492 71.5482 206.457 72.9542 203.965 72.9542H202.641V54.8848C198.825 60.0252 194.072 64.3844 188.233 68.0444L187.378 66.8765C193.529 61.1113 197.97 53.092 200.618 44.9166H190.182L189.557 42.6551H202.641V31.7496L212.222 32.6869C212.066 33.7804 211.366 34.4797 209.499 34.7921V42.6551H213.085L216.67 37.7454C216.67 37.7454 220.872 41.1748 223.364 43.6668C223.134 44.5223 222.353 44.9166 221.341 44.9166H209.507V47.178L209.492 47.1706ZM190.413 32.3744C200.611 27.5465 209.179 20.3009 214.55 12.5198H193.291L192.667 10.2583H220.077V0.67688L230.512 1.68858C230.282 2.78212 229.657 3.55577 227.634 3.8682V10.2509H244.296L248.58 4.72369C248.58 4.72369 253.489 8.53989 256.442 11.2626C256.286 12.1181 255.431 12.5123 254.337 12.5123H227.626V14.8482C255.349 18.1957 255.036 32.5232 247.092 30.4998C243.046 26.0587 234.559 20.3009 227.626 16.7154V33.3043C227.626 33.9292 224.279 35.1715 221.475 35.1715H220.077V16.8716C213.07 24.1915 202.946 29.8005 191.03 33.5349L190.405 32.367L190.413 32.3744ZM244.139 44.9166C248.03 52.2366 254.806 58.158 261.508 61.0369L261.351 61.7361C258.703 62.361 256.755 64.5407 255.825 68.1188C249.904 63.2909 245.545 55.9709 242.823 46.3895V70.9977C242.823 71.697 239.706 72.9467 237.14 72.9467H235.742V52.854C231.145 59.2366 224.837 64.377 217.049 68.5056L216.268 67.4121C223.9 61.5725 229.426 53.4714 232.699 44.9091H223.974L223.431 42.6477H235.734V31.8983L245.471 32.91C245.315 33.9217 244.69 34.7028 242.823 34.9335V42.6403H248.275L252.247 37.1875C252.247 37.1875 256.844 40.9293 259.492 43.6519C259.417 44.5074 258.636 44.9017 257.543 44.9017H244.147L244.139 44.9166Z" fill="white"/>
<path d="M356.204 15.2425C355.661 15.9418 354.805 16.098 353.169 16.1798C350.759 18.9025 346.475 22.6443 343.046 24.7495L342.265 24.2065C343.046 21.5582 344.057 17.742 344.682 14.6251H332.379V25.5306C332.379 27.6359 332.461 27.6359 334.797 27.6359H347.025C347.568 27.6359 348.349 27.6359 349.204 27.3234H349.904L350.29 27.3978C352.857 28.3351 353.251 28.7963 353.251 29.8899C353.251 32.6944 351.54 33.9367 344.295 33.9367H333.859C325.915 33.9367 325.134 33.0812 325.134 25.605V14.6251H296.17C296.794 20.3903 294.771 24.2809 292.123 25.9175C289.713 27.4722 286.515 27.0854 285.503 24.5933C284.648 22.2575 286.128 20.3085 288.151 19.2224C291.112 17.4296 293.76 12.7579 293.135 7.69936L294.303 7.62497C295.002 9.26155 295.47 10.8981 295.857 12.3785H319.994C319.213 12.2223 318.284 11.7536 317.421 11.0543C317.265 7.31253 315.241 3.03511 313.062 0.386831L313.761 0C328.481 2.41767 326.689 11.3668 321.78 12.3859H344.288L348.572 8.02667L356.204 15.2723V15.2425ZM318.901 19.8398C318.589 20.7771 317.733 21.3202 315.398 21.3202C310.183 29.6518 302.314 35.8039 287.757 38.0653L287.214 37.128C300.216 31.6008 306.449 23.9684 309.172 15.0119L318.908 19.8398H318.901ZM345.456 61.1932C345.456 61.1932 350.521 65.1656 353.474 68.1263C353.243 68.9818 352.462 69.3761 351.295 69.3761H288.218L287.519 67.1146H315.941V42.8188H296.861L296.237 40.5574H333.383L337.668 35.1046C337.668 35.1046 342.339 38.8464 345.143 41.5691C344.987 42.4246 344.132 42.8188 343.038 42.8188H323.572V67.1146H340.941L345.456 61.1932Z" fill="white"/>
</svg>
