<svg width="176" height="68" viewBox="0 0 176 68" fill="none" xmlns="http://www.w3.org/2000/svg">
<g style="mix-blend-mode:overlay">
<path d="M19.0122 21.7442H0V21.4467C0.490925 21.3648 0.981874 21.2384 1.46536 21.0598C1.94885 20.8813 2.32818 20.6358 2.60339 20.3159C2.70009 20.1969 2.78193 20.0258 2.85631 19.7952C2.92326 19.572 2.98274 19.3042 3.01993 19.0067C3.05712 18.7091 3.09433 18.3967 3.12408 18.0768C3.15383 17.7495 3.16871 17.4296 3.16871 17.1172C3.16871 16.8419 3.16872 16.4625 3.1836 15.9939C3.19104 15.5178 3.2059 15.0045 3.21334 14.4391C3.22077 13.8738 3.22823 13.301 3.22823 12.7058V4.20307C3.22823 3.846 3.21335 3.51868 3.1836 3.21368C3.15385 2.90869 3.10922 2.63345 3.04972 2.40284C2.99021 2.16479 2.90096 1.97881 2.78195 1.83747C2.50673 1.50271 2.13478 1.24235 1.67361 1.07125C1.21244 0.900153 0.721533 0.773693 0.208293 0.714181V0.416626H9.6549V0.714181C9.39456 0.751376 9.08956 0.810892 8.73996 0.892721C8.38292 0.97455 8.04822 1.101 7.73581 1.27954C7.4234 1.45808 7.14821 1.71101 6.91762 2.03832C6.68703 2.36564 6.56802 2.78966 6.54571 3.32526C6.52339 4.01709 6.50852 4.64941 6.50108 5.22221C6.49364 5.79501 6.47874 6.36038 6.4713 6.91087C6.46386 7.46135 6.45645 8.03415 6.45645 8.62927V14.0225C6.45645 14.5358 6.45642 15.064 6.4713 15.6071C6.47874 16.1501 6.48619 16.7601 6.48619 17.4296C6.5085 18.0619 6.5308 18.6645 6.56055 19.2373C6.59031 19.8101 6.69447 20.2341 6.87299 20.5093C6.95481 20.6061 7.11098 20.7102 7.34901 20.8069C7.58703 20.9036 7.8697 20.9929 8.20443 21.0598C8.53915 21.1268 8.9036 21.1863 9.29783 21.2384C9.69206 21.2904 10.0863 21.3128 10.4805 21.3128C10.6367 21.3128 10.8896 21.3128 11.2318 21.2979C11.574 21.283 11.9607 21.2681 12.3698 21.2384C12.7864 21.2086 13.2104 21.164 13.6418 21.1045C14.0732 21.045 14.46 20.9706 14.7947 20.8664C15.5832 20.6507 16.2378 20.3606 16.7659 20.0109C17.2866 19.6539 17.7403 19.2447 18.1122 18.7835C18.4841 18.3223 18.8039 17.8164 19.0568 17.2734C19.3097 16.7303 19.5626 16.165 19.8007 15.5699L20.0982 15.6591L19.0048 21.7591L19.0122 21.7442Z" fill="white"/>
<path d="M23.6914 21.7442V21.4467C24.1823 21.3648 24.6435 21.2384 25.0675 21.0598C25.4914 20.8813 25.8559 20.6284 26.146 20.2862C26.2427 20.1672 26.3171 20.0035 26.3692 19.7803C26.4212 19.5646 26.4584 19.3042 26.4882 19.0141C26.518 18.7166 26.5402 18.4041 26.5477 18.0842C26.5551 17.7569 26.5626 17.437 26.5626 17.1246C26.5626 16.8494 26.5626 16.47 26.5775 16.0013C26.5849 15.5252 26.5998 15.0119 26.6072 14.4466C26.6146 13.8812 26.6221 13.3084 26.6221 12.7133V4.15099C26.6221 3.79392 26.6072 3.46662 26.5775 3.16162C26.5477 2.85662 26.5031 2.58137 26.4436 2.33589C26.3841 2.0904 26.2948 1.89699 26.1758 1.75565C25.9005 1.42089 25.5584 1.1754 25.1567 1.02662C24.7551 0.877838 24.2939 0.773693 23.7807 0.714181V0.416626H32.6322V0.714181C32.2156 0.773693 31.7768 0.88528 31.3007 1.0415C30.8247 1.19772 30.4602 1.5176 30.2073 1.98625C30.0288 2.32101 29.9321 2.74503 29.9247 3.25832C29.9172 3.77161 29.9024 4.25514 29.88 4.70892C29.88 5.19989 29.88 5.69087 29.8652 6.1744C29.8577 6.65794 29.8503 7.14891 29.8503 7.63988V17.5635C29.8503 18.1363 29.8577 18.6868 29.88 19.2224C29.9024 19.758 29.9916 20.13 30.1478 20.3457C30.3858 20.6804 30.7578 20.9408 31.271 21.1193C31.7842 21.2979 32.2454 21.402 32.6619 21.4467V21.7442H23.6914Z" fill="white"/>
<path d="M55.9579 1.19028C55.5711 1.42832 55.348 1.58454 55.2885 1.66637C55.229 1.72588 55.1472 1.82259 55.0356 1.94906C54.924 2.07552 54.805 2.26149 54.6637 2.51442C54.5224 2.7599 54.3587 3.07234 54.1727 3.44429C53.9868 3.81624 53.7711 4.29234 53.5331 4.86514C53.1388 5.80989 52.7074 6.87367 52.2314 8.04903C51.7553 9.22439 51.2718 10.437 50.7809 11.6793C50.29 12.9216 49.7991 14.1713 49.3156 15.4285C48.8321 16.6857 48.3709 17.8685 47.9395 18.9992L46.489 21.9599H46.132C45.4774 20.3606 44.8749 18.8356 44.3096 17.385C43.7443 15.9344 43.2013 14.5358 42.6658 13.1968C42.1302 11.8504 41.617 10.556 41.126 9.29879C40.6351 8.0416 40.1368 6.78441 39.6458 5.51978C39.5045 5.14783 39.378 4.82051 39.259 4.54527C39.14 4.27003 39.0284 4.00965 38.9168 3.77904C38.8053 3.541 38.7011 3.31783 38.5896 3.09466C38.478 2.87893 38.3664 2.64832 38.2474 2.41027C38.1879 2.29125 38.0986 2.14247 37.9796 1.96394C37.8606 1.7854 37.697 1.60687 37.4887 1.42833C37.2804 1.24979 37.0275 1.10101 36.7374 0.967104C36.4399 0.840641 36.068 0.766261 35.6143 0.743944V0.416626H44.4658V0.714181C44.3691 0.736498 44.1906 0.766251 43.9302 0.803446C43.6699 0.840641 43.4096 0.915033 43.1418 1.02662C42.874 1.1382 42.636 1.28699 42.4277 1.48784C42.2195 1.6887 42.1153 1.93418 42.1153 2.23174C42.1153 2.41028 42.2269 2.82685 42.4426 3.48892C42.6583 4.15099 42.9409 4.95441 43.2831 5.89173C43.6253 6.82904 44.0195 7.85562 44.4509 8.97147C44.8823 10.0873 45.3138 11.1809 45.7378 12.2595C46.1617 13.3382 46.5634 14.335 46.9353 15.2649C47.3072 16.1947 47.6048 16.9535 47.8205 17.5486C47.9172 17.3329 48.1031 16.8791 48.3709 16.1873C48.6387 15.4955 48.9734 14.64 49.375 13.6134C49.7767 12.5868 50.2304 11.4189 50.7214 10.1171C51.2123 8.81525 51.7255 7.45392 52.2611 6.03307C52.6553 4.94698 52.9157 4.12124 53.0347 3.56332C53.1537 2.99795 53.2132 2.61112 53.2132 2.39539C53.2132 2.09783 53.1165 1.85234 52.9157 1.65149C52.7148 1.45808 52.4694 1.29443 52.1718 1.16053C51.8743 1.03406 51.5619 0.937349 51.2421 0.862959C50.9148 0.796008 50.6247 0.751379 50.3718 0.729062V0.431496H57.2745V0.758813C56.7612 0.818325 56.3149 0.96711 55.9282 1.20516L55.9579 1.19028Z" fill="white"/>
<path d="M60.0049 21.7442V21.4467C60.4958 21.3648 60.957 21.2384 61.3809 21.0598C61.8049 20.8813 62.1694 20.6284 62.4595 20.2862C62.5562 20.1672 62.6306 20.0035 62.6826 19.7803C62.7347 19.5646 62.7719 19.3042 62.8017 19.0141C62.8314 18.7166 62.8537 18.4041 62.8612 18.0842C62.8686 17.7569 62.876 17.437 62.876 17.1246C62.876 16.8494 62.8761 16.47 62.8909 16.0013C62.8984 15.5252 62.9132 15.0119 62.9207 14.4466C62.9281 13.8812 62.9356 13.3084 62.9356 12.7133V4.15099C62.9356 3.79392 62.9207 3.46662 62.8909 3.16162C62.8612 2.85662 62.8165 2.58137 62.757 2.33589C62.6975 2.0904 62.6082 1.89699 62.4892 1.75565C62.214 1.42089 61.8719 1.1754 61.4702 1.02662C61.0685 0.877838 60.6074 0.773693 60.0941 0.714181V0.416626H68.9456V0.714181C68.5291 0.773693 68.0903 0.88528 67.6142 1.0415C67.1382 1.19772 66.7737 1.5176 66.5208 1.98625C66.3423 2.32101 66.2456 2.74503 66.2382 3.25832C66.2307 3.77161 66.2158 4.25514 66.1935 4.70892C66.1935 5.19989 66.1935 5.69087 66.1786 6.1744C66.1712 6.65794 66.1637 7.14891 66.1637 7.63988V17.5635C66.1637 18.1363 66.1712 18.6868 66.1935 19.2224C66.2158 19.758 66.3051 20.13 66.4613 20.3457C66.6993 20.6804 67.0712 20.9408 67.5845 21.1193C68.0977 21.2979 68.5589 21.402 68.9754 21.4467V21.7442H60.0049Z" fill="white"/>
<path d="M96.1172 1.27954C95.6709 1.55478 95.3287 1.97881 95.0981 2.55161C94.9568 2.84917 94.8675 3.39223 94.8304 4.19564C94.7932 4.99905 94.7485 5.84708 94.7113 6.75464C94.6741 7.60269 94.6369 8.60696 94.6072 9.76C94.5774 10.913 94.5625 12.1554 94.5625 13.4795V15.3764C94.5625 16.0683 94.5626 16.775 94.5774 17.4966C94.5849 18.2181 94.5923 18.9323 94.5923 19.6464V21.5731C94.5923 21.655 94.57 21.7145 94.5179 21.7665C94.4658 21.8186 94.3915 21.8409 94.2948 21.8409C94.1386 21.8409 93.9601 21.7442 93.7592 21.5434C92.0782 19.6092 90.5533 17.8313 89.1698 16.2096C87.7863 14.5879 86.4697 13.048 85.2126 11.5751C83.9556 10.1022 82.7283 8.66646 81.5233 7.26793C80.3183 5.8694 79.0463 4.41137 77.7 2.91613V15.4136C77.7 16.4179 77.7223 17.3329 77.7744 18.1363C77.8264 18.9472 77.9455 19.5497 78.1463 19.944C78.362 20.3978 78.7042 20.74 79.1654 20.9631C79.6265 21.1863 80.2662 21.35 81.077 21.4541V21.7517H73.7949V21.4541C74.271 21.3946 74.7396 21.2681 75.2156 21.0822C75.6917 20.8962 76.0636 20.5837 76.3388 20.1523C76.614 19.7357 76.7926 19.1257 76.8744 18.3148C76.9562 17.504 77.0157 16.5369 77.0529 15.4136C77.0901 14.5656 77.1198 13.5613 77.1421 12.4083C77.1645 11.2552 77.1719 10.0129 77.1719 8.68878V5.07343C77.1719 4.67917 77.1645 4.19563 77.1421 3.62283C77.0826 3.05003 76.9413 2.58137 76.7256 2.21686C76.5099 1.85235 76.2495 1.56222 75.9594 1.36137C75.6619 1.15308 75.3421 1.00431 74.9999 0.915037C74.6503 0.825769 74.323 0.758811 74.0106 0.721616V0.424061H80.0207L94.0567 16.8345V6.76209C94.0567 5.97355 94.0493 5.21477 94.027 4.49319C94.0047 3.77161 93.9154 3.20625 93.7592 2.78967C93.5584 2.23918 93.2088 1.78539 92.7104 1.4432C92.2046 1.10101 91.4831 0.855522 90.531 0.714181V0.416626H97.8726V0.714181C97.1436 0.810888 96.556 0.996859 96.1097 1.27954H96.1172Z" fill="white"/>
<path d="M123.438 12.133C123.043 12.2595 122.753 12.4603 122.582 12.743C122.441 12.9587 122.367 13.2935 122.344 13.7473C122.322 14.201 122.314 14.6548 122.314 15.1086V19.4307C122.173 19.5497 121.838 19.7431 121.295 20.0258C120.752 20.301 120.09 20.5837 119.309 20.8738C118.528 21.1565 117.666 21.402 116.721 21.6028C115.776 21.7962 114.824 21.9004 113.879 21.9004C112.005 21.9004 110.324 21.6623 108.844 21.1714C107.364 20.6878 106.114 19.9737 105.095 19.0364C104.076 18.0991 103.295 16.9535 102.752 15.5996C102.209 14.2457 101.934 12.7281 101.934 11.0543C101.934 10.5634 101.986 9.99056 102.082 9.35081C102.179 8.71106 102.35 8.03411 102.603 7.31997C102.848 6.60582 103.198 5.89168 103.637 5.15522C104.083 4.4262 104.641 3.73437 105.311 3.07974C106.255 2.14987 107.423 1.40596 108.807 0.840599C110.19 0.275235 111.864 0 113.842 0C115.025 0 116.074 0.104145 116.981 0.312436C117.889 0.520728 118.655 0.743897 119.28 0.996823C119.904 1.24231 120.38 1.47292 120.715 1.68121C121.05 1.8895 121.236 1.99365 121.281 1.99365C121.325 1.99365 121.429 1.87462 121.608 1.63658C121.786 1.39853 122.002 1.11584 122.262 0.781085H122.53V7.23814H122.173C121.957 6.3529 121.63 5.51229 121.199 4.72375C120.767 3.93522 120.299 3.28059 119.808 2.7673C119.175 2.09779 118.365 1.55475 117.375 1.13817C116.386 0.721582 115.285 0.513281 114.058 0.513281C112.756 0.513281 111.581 0.803412 110.532 1.38365C109.483 1.96389 108.598 2.74498 107.869 3.72693C107.14 4.70144 106.575 5.83216 106.181 7.10423C105.787 8.3763 105.586 9.71532 105.586 11.1213C105.586 12.6612 105.772 14.0671 106.151 15.3392C106.523 16.6113 107.066 17.7048 107.78 18.6124C108.494 19.5199 109.357 20.2266 110.383 20.7325C111.41 21.2383 112.585 21.4913 113.909 21.4913C114.854 21.4913 115.739 21.3276 116.557 21.0003C117.375 20.673 118.023 20.1448 118.499 19.4158C118.655 19.1628 118.774 18.7016 118.856 18.0544C118.937 17.4072 118.975 16.7303 118.975 16.0385C118.975 15.3466 118.937 14.7292 118.87 14.1713C118.804 13.6208 118.595 13.167 118.261 12.8099C117.807 12.2966 117.003 11.9917 115.858 11.8949V11.5974H124.538V11.8949C124.204 11.9321 123.839 12.0214 123.445 12.1479L123.438 12.133Z" fill="white"/>
<path d="M137.861 21.7442V21.4467C138.352 21.3648 138.813 21.2384 139.237 21.0598C139.661 20.8813 140.026 20.6284 140.316 20.2862C140.413 20.1672 140.487 20.0035 140.539 19.7803C140.591 19.5646 140.628 19.3042 140.658 19.0141C140.688 18.7166 140.71 18.4041 140.718 18.0842C140.725 17.7569 140.732 17.437 140.732 17.1246C140.732 16.8494 140.733 16.47 140.747 16.0013C140.755 15.5252 140.77 15.0119 140.777 14.4466C140.785 13.8812 140.792 13.3084 140.792 12.7133V4.15099C140.792 3.79392 140.777 3.46662 140.747 3.16162C140.718 2.85662 140.673 2.58137 140.613 2.33589C140.554 2.0904 140.465 1.89699 140.346 1.75565C140.071 1.42089 139.728 1.1754 139.327 1.02662C138.925 0.877838 138.464 0.773693 137.951 0.714181V0.416626H146.802V0.714181C146.386 0.773693 145.947 0.88528 145.471 1.0415C144.995 1.19772 144.63 1.5176 144.377 1.98625C144.199 2.32101 144.102 2.74503 144.095 3.25832C144.087 3.77161 144.072 4.25514 144.05 4.70892C144.05 5.19989 144.05 5.69087 144.035 6.1744C144.028 6.65794 144.02 7.14891 144.02 7.63988V17.5635C144.02 18.1363 144.028 18.6868 144.05 19.2224C144.072 19.758 144.162 20.13 144.318 20.3457C144.556 20.6804 144.928 20.9408 145.441 21.1193C145.954 21.2979 146.415 21.402 146.832 21.4467V21.7442H137.861Z" fill="white"/>
<path d="M173.981 1.27954C173.535 1.55478 173.193 1.97881 172.962 2.55161C172.821 2.84917 172.732 3.39223 172.695 4.19564C172.657 4.99905 172.613 5.84708 172.576 6.75464C172.538 7.60269 172.501 8.60696 172.471 9.76C172.442 10.913 172.427 12.1554 172.427 13.4795V15.3764C172.427 16.0683 172.427 16.775 172.442 17.4966C172.449 18.2181 172.457 18.9323 172.457 19.6464V21.5731C172.457 21.655 172.434 21.7145 172.382 21.7665C172.33 21.8186 172.256 21.8409 172.159 21.8409C172.003 21.8409 171.824 21.7442 171.623 21.5434C169.942 19.6092 168.418 17.8313 167.034 16.2096C165.651 14.5879 164.334 13.048 163.077 11.5751C161.82 10.1022 160.593 8.66646 159.388 7.26793C158.183 5.8694 156.911 4.41137 155.564 2.91613V15.4136C155.564 16.4179 155.587 17.3329 155.639 18.1363C155.691 18.9472 155.81 19.5497 156.011 19.944C156.226 20.3978 156.568 20.74 157.03 20.9631C157.491 21.1863 158.13 21.35 158.941 21.4541V21.7517H151.659V21.4541C152.135 21.3946 152.604 21.2681 153.08 21.0822C153.556 20.8962 153.928 20.5837 154.203 20.1523C154.478 19.7357 154.657 19.1257 154.739 18.3148C154.82 17.504 154.88 16.5369 154.917 15.4136C154.954 14.5656 154.984 13.5613 155.006 12.4083C155.029 11.2552 155.036 10.0129 155.036 8.68878V5.07343C155.036 4.67917 155.029 4.19563 155.006 3.62283C154.947 3.05003 154.806 2.58137 154.59 2.21686C154.374 1.85235 154.114 1.56222 153.824 1.36137C153.526 1.15308 153.206 1.00431 152.864 0.915037C152.515 0.825769 152.187 0.758811 151.875 0.721616V0.424061H157.885L171.921 16.8345V6.76209C171.921 5.97355 171.914 5.21477 171.891 4.49319C171.869 3.77161 171.78 3.20625 171.623 2.78967C171.423 2.23918 171.073 1.78539 170.575 1.4432C170.069 1.10101 169.347 0.855522 168.395 0.714181V0.416626H175.737V0.714181C175.008 0.810888 174.42 0.996859 173.974 1.27954H173.981Z" fill="white"/>
<path d="M24.0258 46.3672C22.9919 45.0877 22.0175 43.9942 21.0877 43.0867C20.1579 42.1791 19.2504 41.517 18.3727 41.0856C17.9413 40.8847 17.1751 40.7136 16.052 40.5797C14.9362 40.4458 13.6345 40.3714 12.1543 40.3714C11.9014 40.3714 11.6113 40.3714 11.2841 40.3937C10.9568 40.4086 10.6444 40.416 10.3394 40.4309C10.0344 40.4458 9.75176 40.4532 9.49142 40.4681C9.23108 40.483 9.03026 40.483 8.90381 40.483C8.8815 40.6318 8.8443 40.788 8.80711 40.9368C8.76992 41.0856 8.74016 41.2641 8.71041 41.4649C8.68809 41.6658 8.65836 41.9262 8.63604 42.2386C8.61373 42.551 8.58395 42.9379 8.56164 43.3842C8.53932 44.262 8.51704 45.2291 8.50216 46.2705C8.48729 47.312 8.47983 48.3014 8.47983 49.2313V52.8094H9.15669C9.55835 52.8094 10.0047 52.7945 10.4956 52.7722C10.9865 52.7499 11.4923 52.7127 12.0204 52.6755C12.5486 52.6383 12.9874 52.5788 13.337 52.5044C14.2445 52.3036 14.9585 52.0432 15.4867 51.7159C16.0148 51.3886 16.4313 51.0017 16.7289 50.548C17.0338 50.0942 17.2421 49.6032 17.3686 49.0602C17.495 48.5171 17.6066 47.9369 17.7107 47.3046H18.1645V59.445H17.7107C17.5099 58.6416 17.2198 57.7936 16.8404 56.9009C16.4611 56.0082 16.0148 55.3238 15.4867 54.8477C15.0106 54.4237 14.4974 54.1038 13.9618 53.8881C13.4188 53.6723 12.7866 53.5459 12.0576 53.4938C11.6783 53.4715 11.351 53.4492 11.0758 53.4343C10.8006 53.4194 10.5328 53.412 10.2873 53.412H8.47983V58.0837C8.47983 58.7904 8.47985 59.4376 8.50216 60.0252C8.51704 60.6129 8.52445 61.1262 8.52445 61.5502C8.54677 62.3537 8.59139 63.1124 8.65834 63.834C8.71784 64.5481 8.86662 65.0838 9.08977 65.4334C9.31292 65.783 9.69969 66.0583 10.2352 66.2442C10.7782 66.4302 11.5593 66.5492 12.5932 66.6013V66.9807H0.52832V66.6013C1.15313 66.5046 1.74075 66.3409 2.28374 66.1103C2.82673 65.8872 3.27302 65.5673 3.62262 65.1656C3.74907 65.0168 3.84578 64.7936 3.92017 64.5035C3.99455 64.2134 4.06152 63.8786 4.12846 63.5067C4.18797 63.1273 4.23259 62.733 4.26234 62.3165C4.28466 61.8999 4.29953 61.4907 4.29953 61.089C4.29953 60.7394 4.2995 60.2633 4.32182 59.6533C4.33669 59.0507 4.34417 58.3887 4.35904 57.6745C4.37392 56.9604 4.38134 56.2239 4.38134 55.4726V45.9358C4.38134 45.482 4.38136 45.0208 4.35904 44.5447C4.34417 44.0686 4.32183 43.6148 4.28463 43.1908C4.24744 42.7668 4.1805 42.3799 4.09868 42.0378C4.00942 41.6956 3.89042 41.4575 3.74166 41.3013C3.3623 40.8996 2.96064 40.6392 2.53666 40.5276C2.10524 40.4161 1.55482 40.3045 0.877942 40.2078V39.8284H21.839L24.4051 46.1589L24.0258 46.3449V46.3672Z" fill="white"/>
<path d="M54.9697 58.8053C54.2185 60.5162 53.192 61.9966 51.8977 63.2538C50.6035 64.511 49.0935 65.478 47.3752 66.155C45.657 66.8319 43.8272 67.1741 41.8932 67.1741C39.9593 67.1741 38.1741 66.8394 36.4633 66.1773C34.7525 65.5152 33.2575 64.5705 31.9781 63.3505C30.6987 62.1305 29.6871 60.6724 28.9433 58.9763C28.1994 57.2803 27.835 55.4131 27.835 53.3748C27.835 51.2175 28.2218 49.2759 29.0028 47.5501C29.7838 45.8317 30.8326 44.3736 32.1491 43.1759C33.4657 41.9857 35.0129 41.0633 36.7832 40.4235C38.5535 39.7838 40.4205 39.4639 42.3842 39.4639C44.519 39.4639 46.438 39.8433 48.134 40.5946C49.8299 41.3459 51.2655 42.3576 52.4481 43.6297C53.6308 44.9018 54.5309 46.3598 55.1631 48.0187C55.7879 49.6776 56.1078 51.4109 56.1078 53.2186C56.1078 55.2271 55.7284 57.0869 54.9772 58.7978L54.9697 58.8053ZM50.8415 48.6287C50.4547 47.074 49.8596 45.6606 49.0712 44.3885C48.2827 43.1164 47.2935 42.0898 46.1108 41.2939C44.9281 40.5053 43.5371 40.1036 41.9304 40.1036C40.3238 40.1036 38.8808 40.4979 37.6907 41.2939C36.4931 42.0824 35.5187 43.109 34.7525 44.3662C33.9864 45.6234 33.4211 47.0517 33.0566 48.6436C32.6921 50.243 32.5136 51.8572 32.5136 53.4864C32.5136 55.1155 32.7144 56.8414 33.1161 58.4259C33.5178 60.0104 34.1129 61.4015 34.9088 62.6066C35.7046 63.8117 36.6939 64.7788 37.8841 65.5078C39.0742 66.2368 40.4651 66.6013 42.0495 66.6013C43.6338 66.6013 45.0099 66.1996 46.1777 65.3962C47.3455 64.5928 48.3199 63.5588 49.1009 62.2867C49.8819 61.0146 50.4621 59.5938 50.8563 58.0093C51.2431 56.4248 51.444 54.8403 51.444 53.2632C51.444 51.6861 51.2506 50.1835 50.8563 48.6287H50.8415Z" fill="white"/>
<path d="M82.5202 66.9807C82.297 66.7575 82.1334 66.5864 82.0293 66.4748C81.9326 66.3632 81.8135 66.2293 81.6871 66.0806C81.5606 65.9318 81.4044 65.7086 81.2185 65.4185C81.0325 65.1284 80.735 64.6969 80.3333 64.1166C79.8573 63.4099 79.4333 62.7776 79.0689 62.2123C78.7044 61.6469 78.3324 61.089 77.9605 60.5385C77.5886 59.988 77.1721 59.4226 76.7332 58.8573C76.2944 58.2919 75.7737 57.6596 75.1712 56.9529C74.6654 56.3727 74.1224 55.837 73.5348 55.3312C72.9472 54.8328 72.3223 54.5129 71.6678 54.3865C71.1917 54.2897 70.8272 54.2377 70.5743 54.2377C70.3512 54.2377 70.0611 54.2228 69.7041 54.2005V58.463C69.7041 59.6681 69.7189 60.6873 69.7412 61.513C69.7636 62.3164 69.7933 63.0082 69.8157 63.5885C69.838 64.1687 69.9793 64.6448 70.2322 65.0242C70.433 65.3515 70.8198 65.6863 71.4 66.021C71.9802 66.3632 72.7835 66.5566 73.81 66.6013V66.9807H61.7451V66.6013C62.3699 66.5046 62.9724 66.3484 63.5526 66.1475C64.1328 65.9467 64.5791 65.6417 64.9064 65.2399C65.0328 65.0912 65.1295 64.8606 65.2039 64.563C65.2783 64.2654 65.3378 63.9232 65.375 63.5439C65.4122 63.1645 65.4419 62.7628 65.4717 62.3387C65.494 61.9147 65.5089 61.4981 65.5089 61.0964C65.5089 60.7468 65.5089 60.2707 65.5312 59.6607C65.5461 59.0581 65.5535 58.3961 65.5684 57.6819C65.5833 56.9678 65.5907 56.2313 65.5907 55.48V45.9432C65.5907 45.4894 65.5907 45.0356 65.5684 44.567C65.5535 44.1058 65.5312 43.6594 65.494 43.2503C65.4568 42.8337 65.3899 42.4617 65.3081 42.1195C65.2188 41.7774 65.0998 41.5319 64.951 41.3831C64.5717 40.9814 64.1551 40.7136 63.6865 40.5722C63.2179 40.4383 62.6526 40.3119 61.9683 40.2152V39.8358H63.5154C64.3708 39.8358 65.3378 39.8358 66.4164 39.8209C67.4949 39.806 68.5809 39.7986 69.6594 39.7986H72.3C73.9811 39.7986 75.4762 39.8507 76.7853 39.9474C78.0944 40.0515 79.2846 40.3863 80.3631 40.9665C81.4714 41.5467 82.364 42.3278 83.0409 43.3247C83.7177 44.3215 84.0599 45.5712 84.0599 47.0739C84.0599 48.0038 83.8888 48.8369 83.5541 49.5808C83.2119 50.3247 82.7656 50.9719 82.2003 51.5373C81.635 52.1027 80.973 52.5862 80.2218 52.9879C79.4705 53.3896 78.6746 53.7318 77.849 54.0071V54.1186C78.273 54.3418 78.6895 54.6691 79.0912 55.1006C79.4928 55.5321 79.8796 56.0081 80.259 56.5363C80.9135 57.4885 81.6202 58.5225 82.3863 59.6309C83.1524 60.7393 83.8368 61.7139 84.4393 62.5693C85.369 63.8786 86.2765 64.8308 87.1542 65.4334C88.032 66.0359 89.0659 66.4227 90.2485 66.6013V66.9807H82.5202ZM78.7862 43.4958C78.1614 42.5138 77.239 41.7402 76.034 41.1599C75.4315 40.8847 74.7993 40.6838 74.1298 40.5574C73.4604 40.4309 72.7686 40.3714 72.0397 40.3714C71.5116 40.3714 71.0876 40.3863 70.7603 40.4086C70.433 40.4309 70.1801 40.4607 70.009 40.483C69.9867 40.6318 69.957 40.7657 69.9347 40.8772C69.9123 40.9888 69.89 41.1376 69.8751 41.3087C69.8603 41.4872 69.8528 41.7327 69.838 42.0452C69.8231 42.3576 69.8082 42.8039 69.7784 43.3842C69.7561 44.262 69.7338 45.2588 69.719 46.3598C69.7041 47.4682 69.6966 48.532 69.6966 49.566V53.7095C70.7231 53.7095 71.6901 53.6649 72.5827 53.5756C73.4753 53.4863 74.3381 53.3078 75.1638 53.0326C75.9671 52.7796 76.6588 52.4449 77.239 52.0134C77.8192 51.5894 78.2878 51.1058 78.6523 50.5628C79.0168 50.0198 79.2845 49.4395 79.4631 48.8072C79.6416 48.1823 79.7234 47.5277 79.7234 46.8507C79.7234 45.5936 79.411 44.4777 78.7788 43.4958H78.7862Z" fill="white"/>
<path d="M116.557 66.9807H93.4912V66.6013C94.116 66.5046 94.7037 66.3409 95.2467 66.1103C95.7897 65.8872 96.236 65.5673 96.5856 65.1656C96.712 65.0168 96.8087 64.7936 96.8831 64.5035C96.9574 64.2134 97.0244 63.8786 97.0914 63.5067C97.1509 63.1273 97.1955 62.733 97.2252 62.3165C97.2475 61.8999 97.2624 61.4907 97.2624 61.089C97.2624 60.7394 97.2624 60.2633 97.2848 59.6533C97.2996 59.0507 97.3071 58.3887 97.3219 57.6745C97.3368 56.9604 97.3442 56.2239 97.3442 55.4726V45.9358C97.3442 45.482 97.3442 45.0208 97.3219 44.5447C97.3071 44.0686 97.2848 43.6148 97.2476 43.1908C97.2104 42.7668 97.1434 42.3799 97.0616 42.0378C96.9724 41.6956 96.8533 41.4575 96.7045 41.3013C96.3252 40.8996 95.9235 40.6392 95.4996 40.5276C95.0681 40.4161 94.5177 40.3045 93.8408 40.2078V39.8284H114.646L117.212 46.0474L116.832 46.2333C114.794 43.6966 112.89 41.9857 111.105 41.1079C110.681 40.907 109.885 40.7285 108.732 40.5797C107.579 40.4309 106.166 40.3565 104.507 40.3565C103.979 40.3565 103.436 40.3788 102.871 40.416C102.306 40.4532 101.896 40.4979 101.644 40.55C101.591 40.9517 101.547 41.7848 101.51 43.0346C101.472 44.2918 101.45 45.7498 101.45 47.4087V49.8189C101.45 50.4736 101.45 51.0092 101.472 51.4183C101.487 51.8349 101.495 52.1548 101.495 52.3779V52.7945H102.246C102.625 52.7945 103.057 52.7797 103.548 52.7573C104.039 52.735 104.53 52.6978 105.021 52.6606C105.511 52.6234 105.921 52.5639 106.248 52.4895C106.999 52.311 107.631 52.073 108.13 51.7754C108.636 51.4704 109.037 51.1133 109.357 50.6819C109.669 50.2578 109.922 49.7594 110.108 49.1941C110.294 48.6287 110.465 47.9964 110.614 47.2897H111.068V59.1623H110.614C110.413 58.3589 110.108 57.5257 109.692 56.6777C109.275 55.8222 108.844 55.1825 108.39 54.7584C107.988 54.4088 107.505 54.1187 106.94 53.8881C106.374 53.6575 105.712 53.5236 104.961 53.4715C104.582 53.4492 104.269 53.4269 104.016 53.412C103.763 53.3971 103.511 53.3897 103.265 53.3897H101.532C101.48 53.7393 101.458 54.26 101.458 54.937V59.4599C101.458 59.8616 101.458 60.2484 101.48 60.6055C101.495 60.97 101.502 61.275 101.502 61.5279C101.525 62.3313 101.569 63.0901 101.636 63.8117C101.696 64.5258 101.844 65.0614 102.068 65.4111C102.291 65.7607 102.834 66.0136 103.689 66.1624C104.544 66.3112 105.474 66.3856 106.478 66.3856C106.902 66.3856 107.453 66.3707 108.115 66.3484C108.777 66.3261 109.476 66.2591 110.205 66.1624C111.008 66.0657 111.752 65.8648 112.429 65.5747C113.106 65.2846 113.76 64.8755 114.385 64.3473C115.01 63.8191 115.62 63.1719 116.215 62.4057C116.803 61.6395 117.413 60.7171 118.045 59.6384L118.461 59.75L116.58 66.9509L116.557 66.9807Z" fill="white"/>
<path d="M142.056 62.8C141.565 63.7522 140.888 64.5705 140.018 65.2474C139.148 65.9244 138.114 66.4302 136.909 66.7576C135.704 67.0849 134.387 67.2485 132.952 67.2485C131.717 67.2485 130.668 67.1741 129.783 67.0253C128.905 66.8766 128.176 66.6906 127.596 66.4823C127.016 66.2666 126.585 66.0732 126.294 65.8946C126.004 65.7161 125.826 65.6343 125.751 65.6343C125.677 65.6343 125.513 65.783 125.261 66.088C125.008 66.3856 124.784 66.6757 124.584 66.9584H124.241L124.13 59.4599H124.509C124.732 60.1369 125.022 60.7989 125.38 61.4387C125.729 62.0784 126.116 62.681 126.532 63.2463C126.949 63.8117 127.388 64.3101 127.849 64.7341C128.31 65.1656 128.757 65.4855 129.188 65.7161C129.619 65.9467 130.177 66.1699 130.884 66.393C131.59 66.6162 132.267 66.7352 132.922 66.7352C134.781 66.7352 136.291 66.2294 137.444 65.2102C138.597 64.1911 139.178 62.8149 139.178 61.0816C139.178 60.3749 139.066 59.7649 138.835 59.2367C138.612 58.7085 138.3 58.2473 137.913 57.8605C137.526 57.4737 137.065 57.1389 136.537 56.8637C136.009 56.5884 135.443 56.3355 134.841 56.1124C134.238 55.8892 133.71 55.6958 133.257 55.547C132.803 55.3982 132.386 55.2494 131.992 55.1155C131.605 54.9742 131.204 54.8403 130.787 54.6989C130.371 54.565 129.872 54.3791 129.299 54.1559C128.645 53.903 128.02 53.5608 127.418 53.1219C126.815 52.683 126.287 52.1697 125.833 51.5746C125.38 50.9869 125.015 50.3322 124.74 49.6181C124.465 48.904 124.323 48.1452 124.323 47.3343C124.323 45.9804 124.569 44.8125 125.067 43.8306C125.565 42.8486 126.227 42.0378 127.068 41.3831C127.901 40.7285 128.868 40.245 129.962 39.9325C131.055 39.6201 132.208 39.4639 133.413 39.4639C134.543 39.4639 135.51 39.5606 136.314 39.7466C137.117 39.9325 137.779 40.1408 138.292 40.3714C138.806 40.5946 139.2 40.8029 139.46 40.9963C139.721 41.1823 139.869 41.279 139.892 41.279C139.966 41.279 140.122 41.1302 140.36 40.8252C140.598 40.5202 140.821 40.2226 141.022 39.9176H141.439V46.8954H141.022C140.717 46.0623 140.33 45.244 139.854 44.4257C139.378 43.6074 138.82 42.8784 138.196 42.2386C137.571 41.5989 136.849 41.0781 136.046 40.6764C135.243 40.2747 134.35 40.0739 133.368 40.0739C132.587 40.0739 131.851 40.1854 131.166 40.4161C130.482 40.6467 129.872 40.9814 129.359 41.4352C128.846 41.889 128.444 42.4469 128.154 43.109C127.864 43.7785 127.723 44.5373 127.723 45.3927C127.723 46.7243 128.124 47.7956 128.928 48.599C129.731 49.4024 130.772 50.0421 132.052 50.5182C132.55 50.7191 133.019 50.8976 133.457 51.0464C133.896 51.1952 134.328 51.3439 134.752 51.4779C135.176 51.6192 135.607 51.7605 136.046 51.9093C136.485 52.0581 136.946 52.2217 137.422 52.4003C139.125 53.0326 140.449 53.9402 141.387 55.1304C142.324 56.3206 142.8 57.8159 142.8 59.5938C142.8 60.7989 142.554 61.8776 142.064 62.8372L142.056 62.8Z" fill="white"/>
<path d="M175.514 46.9326C175.313 46.4789 175.075 46.0102 174.799 45.5192C174.524 45.0283 174.242 44.5745 173.951 44.143C173.661 43.719 173.379 43.3173 173.104 42.9528C172.828 42.5883 172.59 42.3205 172.389 42.1419C171.861 41.6361 171.289 41.3088 170.671 41.1451C170.054 40.9815 169.273 40.8847 168.313 40.8624C167.837 40.8624 167.421 40.8624 167.071 40.8401C166.722 40.8252 166.364 40.8252 166.015 40.8252H163.53C163.53 41.4501 163.53 42.3056 163.516 43.3917C163.501 44.4703 163.493 45.6011 163.493 46.7839V61.5205C163.493 62.2495 163.516 62.9488 163.553 63.6109C163.59 64.2729 163.709 64.749 163.91 65.0243C164.289 65.5748 164.817 65.9542 165.509 66.155C166.201 66.3559 166.826 66.5046 167.376 66.6088V66.9882H155.125V66.6088C155.78 66.5344 156.405 66.4079 157.007 66.2294C157.61 66.0509 158.197 65.6417 158.777 64.9871C158.904 64.8606 159.001 64.6523 159.06 64.3622C159.12 64.0721 159.172 63.7448 159.209 63.3803C159.246 63.0158 159.268 62.6215 159.283 62.19C159.298 61.766 159.306 61.3494 159.306 60.9477C159.306 60.5981 159.306 60.1294 159.328 59.5566C159.343 58.9764 159.35 58.3366 159.365 57.6374C159.38 56.9307 159.387 56.2016 159.387 55.4503V40.8252H156.903C156.576 40.8252 156.234 40.8252 155.869 40.8401C155.505 40.855 155.081 40.8624 154.605 40.8624C153.652 40.8847 152.864 41.0038 152.247 41.2046C151.629 41.4055 151.056 41.7551 150.528 42.261C150.328 42.4395 150.097 42.6999 149.829 43.0495C149.569 43.3991 149.286 43.786 149.004 44.2025C148.713 44.6191 148.438 45.0655 148.178 45.5415C147.91 46.0176 147.709 46.4863 147.553 46.9401L147.211 46.8285L148.342 39.6647C148.922 39.7912 149.457 39.8879 149.941 39.9697C150.424 40.0516 151.138 40.0962 152.068 40.1185C153.02 40.1408 153.876 40.1632 154.634 40.178C155.386 40.1929 156.115 40.2004 156.821 40.2004H163.984C164.735 40.2004 165.464 40.2004 166.171 40.178C166.878 40.1557 167.607 40.1557 168.358 40.1408C169.109 40.126 169.965 40.126 170.924 40.126C171.757 40.1036 172.434 40.0293 172.977 39.9177C173.52 39.8061 174.078 39.6573 174.658 39.4862L175.863 46.8359L175.521 46.9475L175.514 46.9326Z" fill="white"/>
</g>
</svg>
