<svg width="588" height="103" viewBox="0 0 588 103" fill="none" xmlns="http://www.w3.org/2000/svg">
<path d="M49.3752 70.2167V93.2552H38.6195V70.2167H0V61.3866L43.3056 0H49.3752V61.3866H63.5823V70.2167H49.3752ZM38.6195 14.0746L5.51175 61.3866H38.6195V14.0746Z" fill="white"/>
<path d="M106.754 1.9342C124.546 1.9342 138.754 6.34553 148.133 14.4838C157.096 22.2055 161.79 32.9697 161.79 47.1782C161.79 63.596 155.311 76.5622 143.031 84.4252C134.477 89.9449 122.203 93.2553 108.272 93.2553H69.5107V90.6368C80.2665 89.945 81.65 88.1522 81.65 77.3954V17.385C81.65 6.48687 79.9987 5.24456 69.5107 4.55273V1.9342H106.754ZM95.7232 81.6653C95.7232 86.4932 96.9654 88.1447 102.343 88.1447C116.55 88.1447 124.137 86.4858 132.409 80.9735C142.064 74.4942 146.75 63.596 146.75 48.0039C146.75 33.6615 142.339 24.1396 133.643 16.5518C125.506 9.38064 116.818 7.03735 103.02 7.03735C97.7761 7.03735 95.7083 8.27967 95.7083 12.8323V81.6653H95.7232Z" fill="white"/>
<path d="M257.609 43.4066C257.609 43.4066 264.668 48.5693 268.989 52.3632C268.677 53.5237 267.62 54.0518 266.148 54.0518H197.136V62.9042H250.557L255.928 57.7416L265.62 65.7534C264.883 66.594 263.619 67.1221 261.514 67.442C260.569 86.828 258.561 95.7846 253.927 99.266C250.974 101.475 247.18 102.532 242.546 102.532C242.546 99.5785 242.234 97.0492 241.073 95.6804C239.809 94.3117 237.488 93.3595 234.543 92.623C233.486 93.5678 230.013 94.8324 226.956 94.8324H225.379V91.5667H186.714L183.241 96.2012L172.597 90.302C173.541 89.3573 175.126 88.1968 176.598 87.3488V72.1732L189.348 73.4378C189.139 74.8066 188.187 75.7588 185.874 76.0713V88.5018H200.728V68.7959L213.158 70.0605C213.053 71.221 212.317 72.0616 210.205 72.3815V88.5018H225.379V72.3815L237.808 73.542C237.6 74.7025 236.863 75.5431 234.751 75.9671V90.9269C237.808 91.2394 242.13 91.5592 243.811 91.5592C245.388 91.5592 246.235 91.3509 247.076 90.6145C249.181 88.8217 250.55 80.8173 251.398 65.9542H197.136V67.0106C197.136 68.0669 192.918 70.3804 188.708 70.3804H187.131V10.1097L197.879 14.64H207.043C207.884 11.2702 208.94 6.73982 209.572 3.57825L224.531 6.21165C224.107 7.9003 222.738 8.74091 220.529 8.74091C218.528 10.318 215.791 12.7431 213.366 14.64H235.599L240.553 9.26908L251.085 17.2809C250.349 18.1215 248.876 19.0737 246.659 19.4903V44.7828C246.555 45.6234 241.601 47.6245 238.336 47.6245H236.648V42.4619H197.136V50.9944H251.398L257.616 43.4066H257.609ZM197.128 17.6975V26.9739H236.64V17.6975H197.128ZM236.64 39.4044V30.0239H197.128V39.4044H236.64Z" fill="white"/>
<path d="M308.814 81.8736C308.814 82.8184 305.757 84.4029 303.124 84.4029H301.755V78.5037H286.581L283.844 81.5612L275.833 77.135C276.569 76.3985 277.73 75.5579 278.89 74.9256V22.7559L289.006 23.9164C288.902 25.181 287.95 26.0216 285.845 26.4456V75.4389H290.271V5.37097L300.595 6.42731C300.387 7.90023 299.539 8.85242 297.33 9.16486V75.4389H301.755V22.5476L312.08 23.7081C311.871 24.9727 311.023 25.9175 308.814 26.3415V81.8736ZM304.284 101.051C313.24 95.1522 321.668 85.2435 325.565 77.5515L337.362 83.9788C336.73 85.0352 335.785 85.5559 333.361 85.0352C327.246 91.6708 316.714 98.7304 305.229 102.42L304.284 101.051ZM370.031 67.9627C370.031 67.9627 374.137 71.9649 376.25 74.9181C375.937 75.9745 374.985 76.4952 373.721 76.4952H309.766L308.926 73.4378H314.296L313.352 12.0066L319.987 13.6952C321.251 11.4858 322.411 9.16486 323.252 7.58035L333.152 12.8472C332.84 13.6878 331.888 14.1118 329.463 13.6878C327.462 15.0565 324.197 16.9535 321.139 18.6421L321.348 33.2895H322.612L325.878 28.655C325.878 28.655 329.671 32.0249 331.776 34.6583C331.568 35.8188 330.616 36.3469 329.247 36.3469H321.348L321.556 53.5236H322.821L326.19 48.785C326.19 48.785 328.927 51.4184 331.144 53.8435C331.456 51.1059 331.776 48.3609 331.88 45.8317L342.309 47.7286C341.996 48.9932 341.044 50.0496 338.724 50.2579C337.563 54.8924 336.09 59.6384 334.194 63.7448C335.986 63.8489 338.515 64.0572 339.988 64.0572C341.148 64.0572 341.565 63.8489 342.093 63.3207C343.253 61.952 343.67 56.3653 343.782 40.669H339.252L335.778 44.567L327.663 38.7721C328.719 38.0356 330.192 37.2991 331.56 36.6668C332.617 28.0227 333.77 13.5911 333.881 6.32316L344.63 8.11596C344.317 9.27644 343.365 10.5411 340.94 10.7494C340.836 13.8068 340.516 17.809 340.204 21.8112H342.941L347.159 16.1203C347.159 16.1203 351.897 20.1225 354.641 23.1799C354.433 24.3404 353.481 24.8686 352.008 24.8686H339.995C339.571 29.2948 339.155 33.8251 338.731 37.619H342.733L346.526 33.5127L354.537 39.8358C353.801 40.6764 352.641 41.1005 350.64 41.4129C350.431 61.0147 349.799 66.9138 346.846 69.5472C344.845 71.2358 342.212 72.0764 339.259 72.0764C339.259 70.1795 339.155 68.2826 338.099 67.4419C337.258 66.4972 335.778 65.8649 333.993 65.545L334.097 64.1762C332.624 67.3378 331.04 70.1795 329.247 72.6046L327.67 71.8681C328.831 67.5461 329.991 62.071 330.832 56.3802C330.519 56.4843 330.095 56.5885 329.567 56.5885H321.556L321.868 73.4452H358.219L358.532 56.5885H352.209L351.264 53.531H358.643L358.956 36.3544H352.633L351.688 33.297H358.956L359.268 16.6485H351.785L350.84 13.5911H358.323L362.325 8.85242L370.649 16.1203C369.912 16.8568 368.96 17.2808 366.959 17.5932L366.327 73.4378H366.535L370.009 67.9552L370.031 67.9627ZM346.958 78.8162C380.147 84.7153 375.617 106.214 365.189 100.731C362.236 93.352 353.392 84.6112 346.013 79.7609L346.958 78.8162Z" fill="white"/>
<path d="M410.279 67.1147C433.984 71.5409 426.501 87.2372 418.29 81.4422C417.233 77.3359 413.656 72.2774 410.279 69.0117V99.147C410.279 100.092 406.173 101.989 402.796 101.989H401.003V77.5442C395.841 84.4996 389.414 90.3988 381.515 95.3531L380.354 93.7761C388.678 85.98 394.681 75.1265 398.266 64.0647H384.148L383.307 61.0073H401.011V46.2558L413.968 47.5204C413.76 48.9933 412.808 49.9455 410.279 50.3621V61.0073H415.128L419.978 54.3717C419.978 54.3717 425.668 59.0062 429.038 62.3835C428.726 63.544 427.669 64.0722 426.301 64.0722H410.286V67.1296L410.279 67.1147ZM384.468 47.0964C398.273 40.5649 409.862 30.7603 417.129 20.2267H388.365L387.525 17.1693H424.612V4.21057L438.73 5.57935C438.418 7.05227 437.57 8.1086 434.832 8.53263V17.1767H457.378L463.172 9.69311C463.172 9.69311 469.807 14.8558 473.816 18.5455C473.608 19.706 472.448 20.2342 470.975 20.2342H434.832V23.3957C472.343 27.9261 471.919 47.3121 461.171 44.5746C455.689 38.5713 444.205 30.7678 434.832 25.925V48.3684C434.832 49.209 430.302 50.8977 426.509 50.8977H424.612V26.1259C415.128 36.0272 401.435 43.6149 385.316 48.6734L384.475 47.0964H384.468ZM457.169 64.0647C462.436 73.966 471.607 81.9778 480.667 85.8759L480.459 86.8206C476.873 87.6612 474.24 90.6145 472.976 95.4647C464.965 88.9333 459.066 79.0245 455.377 66.0658V99.3627C455.377 100.308 451.159 101.996 447.686 101.996H445.789V74.8066C439.57 83.4507 431.039 90.3988 420.499 95.9855L419.443 94.5125C429.767 86.6123 437.25 75.6547 441.676 64.0573H429.878L429.142 60.9999H445.789V46.4566L458.962 47.8254C458.754 49.1942 457.906 50.2505 455.377 50.5629V60.9924H462.756L468.126 53.6129C468.126 53.6129 474.344 58.6715 477.922 62.3612C477.818 63.5217 476.762 64.0498 475.289 64.0498H457.169V64.0647Z" fill="white"/>
<path d="M561.997 32.6647C566.319 49.1049 575.907 64.0647 587.072 71.5483L586.863 72.7088C582.333 75.6621 580.117 79.7684 579.38 85.0352C569.16 73.6535 563.046 53.7394 559.996 34.0335V98.418C559.996 99.5784 555.779 102.004 552.097 102.004H550.304V52.683C543.669 65.6417 534.081 76.8151 521.436 85.7717L520.276 84.6112C533.762 71.2284 542.717 51.9466 547.247 32.6647H533.025L532.817 31.8241C532.289 32.4564 531.448 32.7688 530.288 32.7688H515.114V40.1483C540.292 49.3132 531.233 66.7055 522.597 59.2219C521.964 53.8509 518.491 47.3121 515.114 42.4693V98.9461C515.114 100.002 511.008 102.004 507.319 102.004H505.422V57.4291C500.684 66.2815 494.673 74.1817 487.191 81.033L485.718 79.7684C494.993 67.018 501.1 49.7372 504.366 32.7763H488.031L487.191 29.7188H505.422V4.41882L518.907 5.7876C518.699 7.36467 517.963 8.421 515.114 8.84502V29.7114H518.275L523.541 22.5477C523.541 22.5477 528.808 26.8697 532.393 30.3437L532.185 29.6073H550.304V4.53041L563.894 6.00333C563.582 7.47625 562.838 8.53259 559.996 8.95661V29.6073H569.48L575.17 22.2278C575.17 22.2278 581.389 27.2863 585.286 30.976C584.974 32.1365 583.918 32.6647 582.445 32.6647H562.005H561.997Z" fill="white"/>
</svg>
