<svg width="260" height="86" viewBox="0 0 260 86" fill="none" xmlns="http://www.w3.org/2000/svg">
<g clip-path="url(#clip0_35_64)">
<path d="M51.4118 85.1388C50.7353 85.5008 49.9592 85.6896 49.1044 85.6896C47.3843 85.6896 46.1572 84.525 46.1572 82.7782C46.1572 81.0314 47.3843 79.8196 49.1044 79.8196C49.9539 79.8196 50.7196 80.0032 51.3016 80.5225L50.5675 81.2622C50.2109 80.9159 49.6707 80.7166 49.1096 80.7166C47.9612 80.7166 47.1956 81.5979 47.1956 82.71C47.1956 83.9008 47.9612 84.7821 49.1096 84.7821C49.6131 84.7821 50.0693 84.6877 50.4206 84.4883V83.1716H49.2774V82.2746H51.4118V85.1283V85.1388Z" fill="white"/>
<path d="M56.5254 79.9663H58.4657C59.5355 79.9663 60.5476 80.3125 60.5476 81.5663C60.5476 82.3689 60.0809 82.9617 59.2575 83.0823L60.7416 85.5478H59.546L58.2559 83.182H57.5322V85.5478H56.5411V79.9663H56.5254ZM58.2926 82.3322C58.8538 82.3322 59.504 82.2849 59.504 81.561C59.504 80.9001 58.8905 80.8214 58.3765 80.8214H57.5165V82.3374H58.2874L58.2926 82.3322Z" fill="white"/>
<path d="M67.2382 79.9663H68.0982L70.5 85.5478H69.3673L68.8481 84.2678H66.4306L65.9272 85.5478H64.8154L67.2434 79.9663H67.2382ZM68.4968 83.418L67.6367 81.1466L66.761 83.418H68.4968Z" fill="white"/>
<path d="M75.0635 79.9663H76.3797L79.0857 84.1157H79.1014V79.9663H80.0925V85.5478H78.8339L76.0756 81.2673H76.0598V85.5478H75.0687V79.9663H75.0635Z" fill="white"/>
<path d="M85.2728 79.9663H87.4701C88.9384 79.9663 90.3071 80.8633 90.3071 82.7571C90.3071 84.6508 88.6919 85.5478 87.3495 85.5478H85.2676V79.9663H85.2728ZM87.0086 84.6508C88.2514 84.6508 89.2688 84.1157 89.2688 82.7571C89.2688 81.3984 88.3878 80.8633 87.1712 80.8633H86.2639V84.6455H87.0034L87.0086 84.6508Z" fill="white"/>
<path d="M101.472 79.9663H105.169V80.8633H102.463V82.2377H105.022V83.1348H102.463V84.6508H105.31V85.5478H101.472V79.9663Z" fill="white"/>
<path d="M112.961 81.1675C112.746 80.8685 112.369 80.7269 111.986 80.7269C111.53 80.7269 111.073 80.9314 111.073 81.4455C111.073 82.5629 113.722 81.9282 113.722 83.9111C113.722 85.1071 112.778 85.6946 111.682 85.6946C110.99 85.6946 110.313 85.4795 109.852 84.9392L110.601 84.2153C110.848 84.5878 111.262 84.7976 111.703 84.7976C112.143 84.7976 112.678 84.5458 112.678 84.0317C112.678 82.8094 110.03 83.5124 110.03 81.519C110.03 80.3702 111.052 79.8298 112.086 79.8298C112.668 79.8298 113.25 79.9977 113.685 80.4069L112.961 81.1728V81.1675Z" fill="white"/>
<path d="M119.831 80.8687H118.121V79.9717H122.537V80.8687H120.827V85.5532H119.836V80.8687H119.831Z" fill="white"/>
<path d="M128.231 79.9663H129.091L131.493 85.5478H130.36L129.841 84.2678H127.424L126.92 85.5478H125.809L128.237 79.9663H128.231ZM129.49 83.418L128.63 81.1466L127.754 83.418H129.49Z" fill="white"/>
<path d="M136.476 80.8687H134.767V79.9717H139.182V80.8687H137.473V85.5532H136.481V80.8687H136.476Z" fill="white"/>
<path d="M143.797 79.9663H147.494V80.8633H144.788V82.2377H147.347V83.1348H144.788V84.6508H147.636V85.5478H143.797V79.9663Z" fill="white"/>
<path d="M160.63 79.9663H161.49L163.892 85.5478H162.759L162.24 84.2678H159.822L159.319 85.5478H158.207L160.635 79.9663H160.63ZM161.888 83.418L161.028 81.1466L160.153 83.418H161.888Z" fill="white"/>
<path d="M168.454 79.9663H170.394C171.464 79.9663 172.476 80.3125 172.476 81.5663C172.476 82.3689 172.01 82.9617 171.186 83.0823L172.67 85.5478H171.475L170.185 83.182H169.461V85.5478H168.47V79.9663H168.454ZM170.221 82.3322C170.782 82.3322 171.433 82.2849 171.433 81.561C171.433 80.9001 170.819 80.8214 170.305 80.8214H169.445V82.3374H170.216L170.221 82.3322Z" fill="white"/>
<path d="M181.187 81.2779C180.778 80.8425 180.4 80.7271 180.012 80.7271C178.864 80.7271 178.098 81.6084 178.098 82.7205C178.098 83.9113 178.864 84.7926 180.012 84.7926C180.463 84.7926 180.893 84.588 181.266 84.1159L182.084 84.6982C181.58 85.3906 180.825 85.6896 180.002 85.6896C178.282 85.6896 177.055 84.525 177.055 82.7782C177.055 81.0314 178.282 79.8196 180.002 79.8196C180.757 79.8196 181.407 80.0661 181.958 80.7009L181.187 81.2674V81.2779Z" fill="white"/>
<path d="M186.698 79.9663H187.689V82.1905H190.301V79.9663H191.292V85.5478H190.301V83.0875H187.689V85.5478H186.698V79.9663Z" fill="white"/>
<path d="M196.452 79.9663H197.443V85.5478H196.452V79.9663Z" fill="white"/>
<path d="M203.752 80.8687H202.042V79.9717H206.457V80.8687H204.748V85.5532H203.757V80.8687H203.752Z" fill="white"/>
<path d="M211.072 79.9663H214.769V80.8633H212.063V82.2377H214.622V83.1348H212.063V84.6508H214.911V85.5478H211.072V79.9663Z" fill="white"/>
<path d="M223.658 81.2779C223.249 80.8425 222.871 80.7271 222.483 80.7271C221.335 80.7271 220.569 81.6084 220.569 82.7205C220.569 83.9113 221.335 84.7926 222.483 84.7926C222.934 84.7926 223.364 84.588 223.736 84.1159L224.554 84.6982C224.051 85.3906 223.296 85.6896 222.473 85.6896C220.752 85.6896 219.525 84.525 219.525 82.7782C219.525 81.0314 220.752 79.8196 222.473 79.8196C223.228 79.8196 223.878 80.0661 224.429 80.7009L223.658 81.2674V81.2779Z" fill="white"/>
<path d="M230.308 80.8687H228.599V79.9717H233.014V80.8687H231.305V85.5532H230.313V80.8687H230.308Z" fill="white"/>
<path d="M242.096 83.5021C242.096 84.8503 241.126 85.6948 239.852 85.6948C238.578 85.6948 237.607 84.8503 237.607 83.5021V79.9717H238.599V83.4706C238.599 84.0214 238.897 84.7453 239.852 84.7453C240.806 84.7453 241.105 84.0214 241.105 83.4706V79.9717H242.096V83.5021Z" fill="white"/>
<path d="M247.257 79.9663H249.197C250.267 79.9663 251.279 80.3125 251.279 81.5663C251.279 82.3689 250.812 82.9617 249.989 83.0823L251.473 85.5478H250.277L248.987 83.182H248.264V85.5478H247.273V79.9663H247.257ZM249.024 82.3322C249.585 82.3322 250.235 82.2849 250.235 81.561C250.235 80.9001 249.622 80.8214 249.108 80.8214H248.248V82.3374H249.019L249.024 82.3322Z" fill="white"/>
<path d="M256.161 79.9663H259.858V80.8633H257.152V82.2377H259.711V83.1348H257.152V84.6508H260V85.5478H256.161V79.9663Z" fill="white"/>
<path d="M66.6617 59.1406C65.7387 59.3137 60.4475 60.3733 59.4249 60.5464V44.7776H66.5306V42.1967H59.4249V35.4873H64.2809V32.9641H50.0643V35.4873H54.4116V42.1967H46.792V44.7776H54.4116V61.5169C51.8787 61.9943 49.0679 62.5136 46.8235 62.8913V67.7279C51.7109 66.3063 64.5169 62.6605 66.6617 61.8316V59.1353V59.1406Z" fill="white"/>
<path d="M53.5417 56.9899C52.5716 55.0385 49.6034 50.6845 47.9149 48.7908L46.1738 50.1075C47.2489 52.1166 48.5756 54.8654 49.7555 59.7964L53.5417 56.9847V56.9899Z" fill="white"/>
<path d="M66.128 20.4689H68.3777V29.0877C66.0861 26.4386 61.2301 21.88 58.6028 20.0859C58.9699 19.3935 59.2269 18.6381 59.5415 17.9457L54.6908 16.1516C52.8658 22.8085 48.5867 30.9709 44.9893 34.7899L47.9889 34.7951C47.9889 34.7951 53.6105 30.1998 57.7166 21.9377C59.4891 24.3088 61.7335 27.6661 63.4536 30.908L68.3777 29.4025V63.9879H65.6665V66.5688H91.9078V63.9879H73.5431V50.8577H90.3241V34.3807C90.3241 33.4417 89.527 32.6811 88.5463 32.6811H73.5484V20.4689H91.913V17.9457H66.1333V20.4689H66.128ZM73.5431 35.2043H85.1062V48.3345H73.5431V35.2043Z" fill="white"/>
<path d="M59.9336 56.9898L61.8267 57.8501C63.5625 56.1033 67.055 49.9185 67.055 49.9185L62.6972 47.5894C62.5976 49.8818 60.909 54.6397 59.9336 56.9898Z" fill="white"/>
<path d="M139.329 19.5297C139.329 18.5907 138.532 17.8301 137.551 17.8301H105.106V31.7052H139.329V19.5297ZM133.959 29.1819H110.634V20.411H133.959V29.1819Z" fill="white"/>
<path d="M133.188 64.2134H112.316C108.121 64.2134 107.356 63.8147 107.356 59.5132V51.6602H142.297V37.4809C142.297 36.5419 141.5 35.7812 140.519 35.7812H102.038V58.8889C102.038 64.7957 103.213 66.7996 109.558 66.7996H135.338C141.757 66.7996 143.66 65.7137 145.648 57.2627H140.398C139.454 64.2134 136.67 64.2186 133.188 64.2186V64.2134ZM124.745 38.2992H136.869V49.137H124.745V38.2992ZM107.35 38.2992H119.322V49.137H107.35V38.2992Z" fill="white"/>
<path d="M183.458 29.3552H170.72V31.9362H183.458V38.1839H173.531V40.7648H183.458V46.0945H173.992V48.6177H183.458V54.1206H171.742V56.6438H183.458V62.3197H188.57V56.6438H201.974V54.1206H188.57V48.6177H199.363V46.0945H188.57V40.7648H199.363V31.9362H202.84V29.3552H199.363V22.5095C199.363 21.5705 198.566 20.8099 197.585 20.8099H188.57V15.9365H183.458V20.8099H173.74V23.4485H183.458V29.3552ZM188.57 23.4485H194.349V29.3552H188.57V23.4485ZM188.57 31.9362H194.349V38.1839H188.57V31.9362Z" fill="white"/>
<path d="M229.851 41.5095H213.736V44.0904H229.851V41.5095Z" fill="white"/>
<path d="M229.851 33.5413H213.736V36.1222H229.851V33.5413Z" fill="white"/>
<path d="M213.584 68.7455H218.697V66.1069H229.851V49.6509H213.584V68.7455ZM218.697 52.1741H225.042V63.526H218.697V52.1741Z" fill="white"/>
<path d="M231.686 25.5836H223.054L225.493 23.8944C224.072 21.6545 221.764 18.9687 219.729 17.0435H216.95C218.072 19.0106 219.924 22.5043 221.329 25.5836H211.989V28.0124H231.691V25.5836H231.686Z" fill="white"/>
<path d="M248.981 58.9989C253.916 53.4226 255.893 46.8759 256.753 43.0412C256.989 41.9868 256.14 40.9954 255.012 40.9954H231.335V43.5186H250.623C250.062 46.6713 249.039 50.8574 245.814 55.3845C244.204 53.218 242.841 50.8574 241.467 46.068H235.462L235.378 46.0943C236.758 51.0253 239.469 55.3845 242.746 58.9359C237.424 64.1555 231.954 65.8709 229.956 66.5633L231.54 68.9134C233.894 68.2262 240.135 66.5056 245.914 61.9208C248.73 64.1555 252.668 66.7364 258.038 68.7455L259.931 66.5108C256.402 64.7902 252.768 62.7286 248.981 58.9989Z" fill="white"/>
<path d="M235.836 37.035C240.828 32.8489 241.069 27.2831 241.153 20.0072H245.81V32.0463C245.81 35.199 246.119 36.3478 249.853 36.3478H254.609C258.438 36.3478 259.056 32.8069 259.722 28.9775H255.066C254.903 30.3938 254.714 31.6895 254.615 32.2194C254.463 32.9066 254.153 33.7669 253.283 33.7669H252.003C250.828 33.7669 250.828 33.3105 250.828 32.3348V19.1259C250.828 18.1869 250.031 17.4263 249.051 17.4263H235.893V23.6163C235.893 31.4115 234.871 33.9924 230.523 37.0298H235.841L235.836 37.035Z" fill="white"/>
<path d="M166.524 59.3401C170.206 53.3179 170.977 44.4315 170.977 36.694H163.609L171.333 20.0701V18.0085H155.785V20.5895H165.607L157.164 39.2802H165.963C166.016 47.1331 164.789 52.9822 164.07 55.39C162.738 52.4104 161.82 48.3397 161.616 43.0624L156.708 43.2355C157.374 51.377 159.623 56.308 161.978 59.8069C159.88 62.8075 157.415 64.6908 155.68 65.8501V68.431L155.753 68.5516C158.26 67.6074 161.417 65.6612 164.227 62.4508C167.605 65.6612 171.952 67.0933 179.933 67.0933H203.668V63.8252H181.827C173.079 63.8252 169.141 62.5085 166.53 59.3505L166.524 59.3401Z" fill="white"/>
<path d="M22.4603 85.7999H16.6289C16.6289 85.5324 16.6289 85.3016 16.6289 85.0655C16.6289 79.4315 16.5555 73.7923 16.6603 68.1636C16.7128 65.483 16.1517 63.007 15.0557 60.6096C13.8967 58.0602 12.7063 56.8589 11.1908 54.4931C10.0266 52.678 8.74707 50.7318 8.74707 47.2801C8.8572 42.0081 8.74707 0.00512695 8.74707 0.00512695C8.74707 0.00512695 18.7213 10.8534 19.3348 11.7295C19.5551 12.0442 19.6757 12.4953 19.6757 12.8888C19.6966 20.5161 19.6337 28.1435 19.7281 35.7656C19.7281 41.7668 16.8072 43.9018 15.4962 48.1929C14.7096 50.7791 15.2602 53.5855 16.8753 55.7573C16.8858 55.773 16.8963 55.7888 16.9068 55.8045C17.641 56.796 18.4328 57.735 19.2509 58.6582C21.6527 61.3493 22.5756 64.5807 22.6228 68.0377C22.6962 73.6507 22.649 79.2689 22.6386 84.8819C22.6386 85.1861 22.5232 85.4904 22.4603 85.8104V85.7999Z" fill="white"/>
<path d="M5.34369 17.9668C5.34369 18.3707 5.34369 18.6068 5.34369 18.8428C5.35418 40.702 5.36466 62.5664 5.37515 84.4256C5.37515 84.604 5.3804 84.7823 5.36991 84.9607C5.3332 85.4695 5.07624 85.779 4.54135 85.779C3.32473 85.779 2.11335 85.7948 0.896733 85.779C0.262203 85.7685 0.0262203 85.48 0.0262203 84.7561C0.0157322 81.9286 0.0157322 79.1011 0.0157322 76.2737C0.0104881 59.3665 0.0157322 42.4594 0 25.5574C0 25.0643 0.152077 24.7024 0.450988 24.3247C2.00847 22.3155 3.54498 20.2854 5.08673 18.2606C5.13393 18.1976 5.18637 18.1452 5.34893 17.9668H5.34369Z" fill="white"/>
<path d="M25.3978 30.9185C25.7964 31.3276 26.0691 31.6057 26.3418 31.8837C27.7262 33.3105 29.1263 34.7321 30.4898 36.18C30.6786 36.3846 30.8202 36.7255 30.8202 37.0036C30.8359 52.8721 30.8359 68.7405 30.8359 84.609C30.8359 85.5952 30.6891 85.7526 29.6979 85.7631C28.6649 85.7788 27.6265 85.7788 26.5935 85.7841C25.7334 85.7841 25.4922 85.548 25.4922 84.6877C25.4922 79.8721 25.4922 75.0512 25.4922 70.2356C25.4922 60.5571 25.5027 50.8839 25.4922 41.2054C25.4922 38.0475 25.4293 34.8843 25.3926 31.7263C25.3926 31.5165 25.3926 31.3066 25.3926 30.9237L25.3978 30.9185Z" fill="white"/>
<path d="M8.74623 58.3645C9.49613 59.335 10.2513 60.3002 11.0012 61.2707C11.793 62.2936 12.5901 63.306 13.361 64.3447C13.5131 64.5493 13.6232 64.843 13.6232 65.0948C13.6442 71.6835 13.6547 78.2722 13.6599 84.8609C13.6599 85.1547 13.6337 85.4485 13.618 85.758C12.1549 85.758 10.7285 85.7947 9.3021 85.737C8.78294 85.716 8.65708 85.2229 8.65708 84.7455C8.65708 82.7731 8.65708 80.806 8.65708 78.8335C8.64659 72.1452 8.6361 65.4568 8.63086 58.7684C8.63086 58.6478 8.63086 58.5324 8.63086 58.4117C8.66757 58.396 8.70428 58.3802 8.74623 58.3645Z" fill="white"/>
</g>
<defs>
<clipPath id="clip0_35_64">
<rect width="260" height="85.8" fill="white"/>
</clipPath>
</defs>
</svg>
